Von Discovery Channel (Deutsch). Qualität: maessig, aber interessante Dokumation


General
Complete name                    : Die Wahre Geschichte von Tschernobyl.avi
Format                           : AVI
Format/Info                      : Audio Video Interleave
File size                        : 612 MiB
Duration                         : 1h 32mn
Overall bit rate                 : 921 Kbps

Video
ID                               : 0
Format                           : MPEG-4 Visual
Codec ID                         : MP42
Codec ID/Info                    : Microsoft MPEG-4 v2 (pre-standard)
Codec ID/Hint                    : Microsoft
Duration                         : 1h 32mn
Bit rate                         : 780 Kbps
Width                            : 384 pixels
Height                           : 288 pixels
Display aspect ratio             : 4:3
Frame rate                       : 30.000 fps
Compression mode                 : Lossy
Bits/(Pixel*Frame)               : 0.235
Stream size                      : 518 MiB (85%)

Audio
ID                               : 1
Format                           : MPEG Audio
Format version                   : Version 1
Format profile                   : Layer 3
Mode                             : Joint stereo
Mode extension                   : MS Stereo
Codec ID                         : 55
Codec ID/Hint                    : MP3
Duration                         : 1h 32mn
Bit rate mode                    : Constant
Bit rate                         : 128 Kbps
Channel(s)                       : 2 channels
Sampling rate                    : 44.1 KHz
Compression mode                 : Lossy
Stream size                      : 85.1 MiB (14%)
Alignment                        : Aligned on interleaves
Interleave, duration             : 26 ms (0.78 video frame)
Writing library                  : LAME3.97

